<svg width="65" height="65" viewBox="0 0 65 65" fill="none" xmlns="http://www.w3.org/2000/svg">
<path d="M55.7143 0H9.28571C4.15736 0 0 4.15736 0 9.28571V55.7143C0 60.8426 4.15736 65 9.28571 65H55.7143C60.8426 65 65 60.8426 65 55.7143V9.28571C65 4.15736 60.8426 0 55.7143 0Z" fill="#FCEDF5"/>
<path opacity="0.2" d="M41.9308 17.9902C43.2776 17.9902 44.5692 18.5252 45.5216 19.4776C46.4739 20.4299 47.0089 21.7216 47.0089 23.0684C47.0089 24.4151 46.4739 25.7068 45.5216 26.6591C44.5692 27.6115 43.2776 28.1465 41.9308 28.1465H36.8527V23.0684C36.8527 21.7216 37.3876 20.4299 38.34 19.4776C39.2924 18.5252 40.584 17.9902 41.9308 17.9902Z" fill="#F55C1B"/>
<path opacity="0.2" d="M28.1473 28.1465H23.0692C21.7224 28.1465 20.4308 27.6115 19.4784 26.6591C18.526 25.7068 17.9911 24.4151 17.9911 23.0684C17.9911 21.7216 18.526 20.4299 19.4784 19.4776C20.4308 18.5252 21.7224 17.9902 23.0692 17.9902C24.416 17.9902 25.7076 18.5252 26.66 19.4776C27.6123 20.4299 28.1473 21.7216 28.1473 23.0684V28.1465Z" fill="#F55C1B"/>
<path opacity="0.2" d="M36.8527 36.8535H41.9308C43.2776 36.8535 44.5692 37.3885 45.5216 38.3409C46.4739 39.2932 47.0089 40.5849 47.0089 41.9316C47.0089 43.2784 46.4739 44.5701 45.5216 45.5224C44.5692 46.4748 43.2776 47.0098 41.9308 47.0098C40.584 47.0098 39.2924 46.4748 38.34 45.5224C37.3876 44.5701 36.8527 43.2784 36.8527 41.9316V36.8535Z" fill="#F55C1B"/>
<path opacity="0.2" d="M23.0692 47.0098C21.7224 47.0098 20.4308 46.4748 19.4784 45.5224C18.526 44.5701 17.9911 43.2784 17.9911 41.9316C17.9911 40.5849 18.526 39.2932 19.4784 38.3409C20.4308 37.3885 21.7224 36.8535 23.0692 36.8535H28.1473V41.9316C28.1473 43.2784 27.6123 44.5701 26.66 45.5224C25.7076 46.4748 24.416 47.0098 23.0692 47.0098Z" fill="#F55C1B"/>
<path d="M23.0692 47.0098C21.7224 47.0098 20.4308 46.4748 19.4784 45.5224C18.526 44.5701 17.9911 43.2784 17.9911 41.9316C17.9911 40.5849 18.526 39.2932 19.4784 38.3409C20.4308 37.3885 21.7224 36.8535 23.0692 36.8535H28.1473V41.9316C28.1473 43.2784 27.6123 44.5701 26.66 45.5224C25.7076 46.4748 24.416 47.0098 23.0692 47.0098Z" stroke="#F55C1B" stroke-width="2.5" stroke-linecap="round" stroke-linejoin="round"/>
<path d="M41.9308 17.9902C43.2776 17.9902 44.5692 18.5252 45.5216 19.4776C46.4739 20.4299 47.0089 21.7216 47.0089 23.0684C47.0089 24.4151 46.4739 25.7068 45.5216 26.6591C44.5692 27.6115 43.2776 28.1465 41.9308 28.1465H36.8527V23.0684C36.8527 21.7216 37.3876 20.4299 38.34 19.4776C39.2924 18.5252 40.584 17.9902 41.9308 17.9902Z" stroke="#F55C1B" stroke-width="2.5" stroke-linecap="round" stroke-linejoin="round"/>
<path d="M28.1473 28.1465H23.0692C21.7224 28.1465 20.4308 27.6115 19.4784 26.6591C18.526 25.7068 17.9911 24.4151 17.9911 23.0684C17.9911 21.7216 18.526 20.4299 19.4784 19.4776C20.4308 18.5252 21.7224 17.9902 23.0692 17.9902C24.416 17.9902 25.7076 18.5252 26.66 19.4776C27.6123 20.4299 28.1473 21.7216 28.1473 23.0684V28.1465Z" stroke="#F55C1B" stroke-width="2.5" stroke-linecap="round" stroke-linejoin="round"/>
<path d="M36.8527 36.8535H41.9308C43.2776 36.8535 44.5692 37.3885 45.5216 38.3409C46.4739 39.2932 47.0089 40.5849 47.0089 41.9316C47.0089 43.2784 46.4739 44.5701 45.5216 45.5224C44.5692 46.4748 43.2776 47.0098 41.9308 47.0098C40.584 47.0098 39.2924 46.4748 38.34 45.5224C37.3876 44.5701 36.8527 43.2784 36.8527 41.9316V36.8535Z" stroke="#F55C1B" stroke-width="2.5" stroke-linecap="round" stroke-linejoin="round"/>
<path d="M36.8527 28.1465H28.1473V36.8518H36.8527V28.1465Z" stroke="#F55C1B" stroke-width="2.5" stroke-linecap="round" stroke-linejoin="round"/>
</svg>
