<svg width="65" height="65" viewBox="0 0 65 65" fill="none" xmlns="http://www.w3.org/2000/svg">
<path d="M55.7143 0H9.28571C4.15736 0 0 4.15736 0 9.28571V55.7143C0 60.8426 4.15736 65 9.28571 65H55.7143C60.8426 65 65 60.8426 65 55.7143V9.28571C65 4.15736 60.8426 0 55.7143 0Z" fill="#FCEDF5"/>
<path opacity="0.2" d="M16.5402 28.6318V17.9919C16.5402 17.6071 16.693 17.238 16.9651 16.966C17.2372 16.6939 17.6063 16.541 17.9911 16.541H47.0089C47.3937 16.541 47.7628 16.6939 48.0349 16.966C48.307 17.238 48.4598 17.6071 48.4598 17.9919V28.6318C48.4598 43.869 35.5276 48.9172 32.9455 49.7732C32.6568 49.8726 32.3432 49.8726 32.0545 49.7732C29.4724 48.9172 16.5402 43.869 16.5402 28.6318Z" fill="#F55C1B"/>
<path d="M16.5402 28.6318V17.9919C16.5402 17.6071 16.693 17.238 16.9651 16.966C17.2372 16.6939 17.6063 16.541 17.9911 16.541H47.0089C47.3937 16.541 47.7628 16.6939 48.0349 16.966C48.307 17.238 48.4598 17.6071 48.4598 17.9919V28.6318C48.4598 43.869 35.5276 48.9172 32.9455 49.7732C32.6568 49.8726 32.3432 49.8726 32.0545 49.7732C29.4724 48.9172 16.5402 43.869 16.5402 28.6318Z" stroke="#F55C1B" stroke-width="2.5" stroke-linecap="round" stroke-linejoin="round"/>
<path d="M40.4799 26.6973L29.84 36.8535L24.5201 31.7754" stroke="#F55C1B" stroke-width="2.5" stroke-linecap="round" stroke-linejoin="round"/>
</svg>
