<svg width="55" height="55" viewBox="0 0 55 55" fill="none" xmlns="http://www.w3.org/2000/svg">
<path d="M47.1429 0H7.85714C3.51776 0 0 3.51776 0 7.85714V47.1428C0 51.4822 3.51776 55 7.85714 55H47.1429C51.4822 55 55 51.4822 55 47.1428V7.85714C55 3.51776 51.4822 0 47.1429 0Z" fill="#E6DEFF"/>
<path d="M22.5765 41C20.7837 41 19.2452 40.6359 17.9612 39.9076C16.6771 39.1793 15.6959 38.1839 15.0176 36.9216C14.3634 35.6592 14.0242 34.239 14 32.6611L14.2907 32.3697H15.1266L15.4173 32.6611C15.6838 34.2876 16.4106 35.5742 17.5978 36.521C18.7849 37.4678 20.2022 37.9412 21.8497 37.9412C23.5456 37.9412 24.9023 37.395 25.9199 36.3025C26.9617 35.2101 27.4825 33.7656 27.4825 31.9692C27.4825 30.2213 26.9738 28.8982 25.9562 28C24.9629 27.0775 23.6546 26.6162 22.0314 26.6162H20.4687L20.3233 26.2885L25.5565 19.3697H19.4875C18.7122 19.3697 18.1187 19.5518 17.7068 19.916C17.2949 20.2558 17.0042 20.8627 16.8346 21.7367L16.5439 22.028H15.3446L15.0539 21.7367L15.599 15.3641L15.9624 15H31.0803L31.371 15.2913V15.7283L25.4111 23.6303C26.7921 23.7516 28.0398 24.1401 29.1542 24.7955C30.2929 25.451 31.1893 26.3735 31.8435 27.563C32.5218 28.7283 32.861 30.1242 32.861 31.7507C32.861 33.5229 32.4007 35.113 31.4801 36.521C30.5594 37.929 29.3117 39.0336 27.7369 39.8347C26.1864 40.6116 24.4662 41 22.5765 41Z" fill="#0A236D"/>
<path d="M38.1654 41C37.4143 41 36.7602 40.733 36.203 40.1989C35.67 39.6405 35.4035 38.9851 35.4035 38.2325C35.4035 37.4556 35.67 36.788 36.203 36.2297C36.7602 35.6713 37.4143 35.3922 38.1654 35.3922C38.9407 35.3922 39.6069 35.6713 40.1642 36.2297C40.7214 36.788 41 37.4556 41 38.2325C41 38.9851 40.7214 39.6405 40.1642 40.1989C39.6069 40.733 38.9407 41 38.1654 41Z" fill="#0A236D"/>
</svg>
