<svg width="55" height="55" viewBox="0 0 55 55" fill="none" xmlns="http://www.w3.org/2000/svg">
<path d="M47.1429 0H7.85714C3.51776 0 0 3.51776 0 7.85714V47.1428C0 51.4822 3.51776 55 7.85714 55H47.1429C51.4822 55 55 51.4822 55 47.1428V7.85714C55 3.51776 51.4822 0 47.1429 0Z" fill="#E6DEFF"/>
<path d="M17 40.0357L22.7535 33.4341C24.9664 30.9121 26.4785 28.6992 27.2899 26.7953C28.1013 24.8915 28.507 23.272 28.507 21.9368C28.507 20.478 28.1136 19.3283 27.3268 18.4876C26.5646 17.6223 25.495 17.1896 24.1181 17.1896C22.5691 17.1896 21.3151 17.7088 20.3562 18.7473C19.3973 19.761 18.8318 20.9849 18.6597 22.419L18.3646 22.7157H17.4057L17.1106 22.419C17.0615 21.2074 17.3196 19.9588 17.8852 18.6731C18.4507 17.3626 19.385 16.2624 20.6881 15.3723C22.0159 14.4574 23.7124 14 25.7778 14C28.2857 14 30.2896 14.6923 31.7894 16.0769C33.3138 17.4368 34.076 19.2665 34.076 21.5659C34.076 22.9258 33.7441 24.2981 33.0802 25.6827C32.441 27.0673 31.3468 28.6003 29.7978 30.2816C28.2734 31.9629 26.1834 33.8791 23.528 36.0302H27.6587C28.9618 36.0302 29.9699 35.8695 30.683 35.5481C31.4206 35.2019 31.9492 34.7321 32.2689 34.1387C32.5885 33.5453 32.8098 32.7665 32.9327 31.8022L33.2278 31.5055H34.8506L35.0718 31.8022L34.5186 40.1841L34.2236 40.4808H17.2951L17 40.0357Z" fill="#0A236D"/>
<path d="M41.1233 41C40.361 41 39.6972 40.728 39.1317 40.1841C38.5907 39.6154 38.3203 38.9478 38.3203 38.1813C38.3203 37.3901 38.5907 36.7102 39.1317 36.1415C39.6972 35.5728 40.361 35.2885 41.1233 35.2885C41.9101 35.2885 42.5862 35.5728 43.1517 36.1415C43.7172 36.7102 44 37.3901 44 38.1813C44 38.9478 43.7172 39.6154 43.1517 40.1841C42.5862 40.728 41.9101 41 41.1233 41Z" fill="#0A236D"/>
</svg>
