<svg width="55" height="55" viewBox="0 0 55 55" fill="none" xmlns="http://www.w3.org/2000/svg">
<path d="M47.1429 0H7.85714C3.51776 0 0 3.51776 0 7.85714V47.1428C0 51.4822 3.51776 55 7.85714 55H47.1429C51.4822 55 55 51.4822 55 47.1428V7.85714C55 3.51776 51.4822 0 47.1429 0Z" fill="#E6DEFF"/>
<path d="M18.7431 39.2297V37.6891L19.0263 37.409H20.0879C20.4418 37.409 20.7603 37.2689 21.0434 36.9888C21.3501 36.6853 21.5034 36.3585 21.5034 36.0084V21.8627C21.5034 21.4426 21.3854 21.1158 21.1495 20.8824C20.9136 20.6256 20.6069 20.4972 20.2294 20.4972C19.7576 20.4972 19.3329 20.6489 18.9555 20.9524H18.6724L18 19.8669L18.0354 19.5868L24.8653 15H26.1746L26.5285 15.3501V36.1134C26.5757 36.4402 26.7408 36.7437 27.0239 37.0238C27.307 37.2806 27.6137 37.409 27.944 37.409H29.0764L29.3595 37.6891V39.2297L29.0764 39.5098H19.0263L18.7431 39.2297Z" fill="#0A236D"/>
<path d="M34.2397 40C33.5084 40 32.8714 39.7432 32.3288 39.2297C31.8098 38.6928 31.5503 38.0626 31.5503 37.3389C31.5503 36.592 31.8098 35.95 32.3288 35.4132C32.8714 34.8763 33.5084 34.6078 34.2397 34.6078C34.9947 34.6078 35.6435 34.8763 36.1861 35.4132C36.7287 35.95 37 36.592 37 37.3389C37 38.0626 36.7287 38.6928 36.1861 39.2297C35.6435 39.7432 34.9947 40 34.2397 40Z" fill="#0A236D"/>
</svg>
