<svg width="65" height="65" viewBox="0 0 65 65" fill="none" xmlns="http://www.w3.org/2000/svg">
<path d="M55.7143 0H9.28571C4.15736 0 0 4.15736 0 9.28571V55.7143C0 60.8426 4.15736 65 9.28571 65H55.7143C60.8426 65 65 60.8426 65 55.7143V9.28571C65 4.15736 60.8426 0 55.7143 0Z" fill="#FCEDF5"/>
<path opacity="0.2" d="M26.6964 52.8105L29.5982 38.3016L17.9911 33.9489L38.3036 12.1855L35.4018 26.6945L47.0089 31.0472L26.6964 52.8105Z" fill="#F55C1B"/>
<path d="M26.6964 52.8105L29.5982 38.3016L17.9911 33.9489L38.3036 12.1855L35.4018 26.6945L47.0089 31.0472L26.6964 52.8105Z" stroke="#F55C1B" stroke-width="2.5" stroke-linecap="round" stroke-linejoin="round"/>
</svg>
